<svg xmlns="http://www.w3.org/2000/svg" width="690.338" height="323.518" viewBox="0 0 690.338 323.518">
  <g id="Group_6741" data-name="Group 6741" transform="translate(3894.5 -3493.482)">
    <g id="Group_6740" data-name="Group 6740" transform="translate(-3894.5 3493.483)">
      <path id="Path_3650" data-name="Path 3650" d="M464.1,313.252,253.07,524.286l-20.848-20.848L467.239,268.421l3.753-53.673-263.73,263.73-17.3-17.3L450.283,200.861H400.362L165,436.22l-13.476-13.476L373.411,200.861H337.168l.288.287L323.98,214.624l-13.763-13.763H260.3l38.723,38.723-17.3,17.3L225.7,200.861H175.781l80.981,80.981L235.914,302.69l-88.407-88.407-3.263,46.658,66.709,66.709-24.94,24.94-45.029-45.029-3.263,46.657,23.331,23.331-26.84,26.84-8.39,119.988H302.9L460.35,366.926Z" transform="translate(-125.823 -200.861)" fill="#d70013"/>
      <path id="Path_3651" data-name="Path 3651" d="M343.984,311.543,240.162,415.364h49.921l50.148-50.148Z" transform="translate(-13.207 -91.847)" fill="#d50013"/>
    </g>
    <g id="Group_6739" data-name="Group 6739" transform="translate(-3549.332 3493.483)">
      <path id="Path_3650-2" data-name="Path 3650" d="M132.711,313.252,343.745,524.286l20.848-20.848L129.576,268.421l-3.753-53.673,263.73,263.73,17.3-17.3L146.532,200.861h49.921L431.811,436.22l13.476-13.476L223.4,200.861h36.243l-.288.287,13.476,13.476L286.6,200.861h49.92L297.8,239.584l17.3,17.3,56.021-56.021h49.921l-80.981,80.981L360.9,302.69l88.407-88.407,3.263,46.658L385.861,327.65l24.94,24.94,45.029-45.029,3.263,46.657L435.762,377.55l26.84,26.84,8.39,119.988H293.917L136.464,366.926Z" transform="translate(-125.823 -200.861)" fill="#d70013"/>
      <path id="Path_3651-2" data-name="Path 3651" d="M240.162,311.543,343.984,415.364H294.063l-50.148-50.148Z" transform="translate(-225.77 -91.847)" fill="#d50013"/>
    </g>
  </g>
</svg>
