<svg xmlns="http://www.w3.org/2000/svg" width="46.875" height="43.773" viewBox="0 0 46.875 43.773">
  <g id="category-new-each" transform="translate(-1.563 -3.125)">
    <path id="Path_3413" data-name="Path 3413" d="M45.313,15.625H37.5V18.75h7.813v9.375H34.375V31.25h4.688V34.6a6.25,6.25,0,1,0,3.125,0V31.25h3.125a3.13,3.13,0,0,0,3.125-3.125V18.75a3.128,3.128,0,0,0-3.125-3.125Zm-1.563,25A3.125,3.125,0,1,1,40.625,37.5a3.125,3.125,0,0,1,3.125,3.125Z" fill="#939393"/>
    <path id="Path_3414" data-name="Path 3414" d="M29.688,9.375H21.875V12.5h7.813v9.375H18.75V25h4.688v9.6a6.25,6.25,0,1,0,3.125,0V25h3.125a3.128,3.128,0,0,0,3.125-3.125V12.5a3.128,3.128,0,0,0-3.125-3.125Zm-1.563,31.25A3.125,3.125,0,1,1,25,37.5a3.125,3.125,0,0,1,3.125,3.125Z" fill="#939393"/>
    <path id="Path_3415" data-name="Path 3415" d="M14.063,3.125H4.688A3.128,3.128,0,0,0,1.563,6.25v9.375A3.128,3.128,0,0,0,4.688,18.75H7.813V34.6a6.25,6.25,0,1,0,3.125,0V18.75h3.125a3.128,3.128,0,0,0,3.125-3.125V6.25a3.128,3.128,0,0,0-3.125-3.125ZM12.5,40.625A3.125,3.125,0,1,1,9.375,37.5,3.125,3.125,0,0,1,12.5,40.625Zm-7.812-25V6.25h9.375l0,9.375Z" fill="#939393"/>
  </g>
</svg>
