<svg xmlns="http://www.w3.org/2000/svg" width="33.75" height="33.75" viewBox="0 0 33.75 33.75">
  <g id="chart" transform="translate(-1.125 -1.125)">
    <path id="Path_3456" data-name="Path 3456" d="M8.719,9.563H2.531a1.408,1.408,0,0,0-1.406,1.406v22.5a1.408,1.408,0,0,0,1.406,1.406H8.719a1.408,1.408,0,0,0,1.406-1.406v-22.5A1.408,1.408,0,0,0,8.719,9.563ZM7.875,32.626h-4.5V11.813h4.5Z" fill="#e2001a"/>
    <path id="Path_3457" data-name="Path 3457" d="M21.094,16.875H14.906A1.408,1.408,0,0,0,13.5,18.281V33.469a1.408,1.408,0,0,0,1.406,1.406h6.188A1.408,1.408,0,0,0,22.5,33.469V18.281a1.408,1.408,0,0,0-1.406-1.406Zm-.844,15.75h-4.5v-13.5h4.5Z" fill="#e2001a"/>
    <path id="Path_3458" data-name="Path 3458" d="M33.469,1.125H27.281a1.408,1.408,0,0,0-1.406,1.406V33.469a1.408,1.408,0,0,0,1.406,1.406h6.188a1.408,1.408,0,0,0,1.406-1.406V2.531a1.408,1.408,0,0,0-1.406-1.406Zm-.844,31.5h-4.5V3.375h4.5Z" fill="#e2001a"/>
  </g>
</svg>
