<svg xmlns="http://www.w3.org/2000/svg" width="25.528" height="33.743" viewBox="0 0 25.528 33.743">
  <g id="badge" transform="translate(-5.236 -1.132)">
    <path id="Path_3459" data-name="Path 3459" d="M23.089,27l.26,5.273-5.334-3.707-5.364,3.71L12.911,27H10.658l-.388,7.875h2.58l5.162-3.57,5.138,3.57h2.58L25.342,27H23.089Z" fill="#e2001a"/>
    <path id="Path_3460" data-name="Path 3460" d="M29.208,10.892l-.154-3.379L26.2,5.691,24.382,2.842,21,2.687,18,1.132,15,2.688l-3.379.155L9.8,5.691,6.946,7.514l-.154,3.379-1.556,3,1.556,3,.155,3.379L9.8,22.1l1.823,2.849L15,25.1l3,1.556L21,25.1l3.379-.154L26.2,22.1l2.849-1.823.154-3.379,1.556-3ZM26.983,16.3l-.124,2.709-2.283,1.461-1.461,2.283-2.708.124L18,24.126l-2.407-1.247-2.708-.124-1.461-2.283L9.141,19.011,9.017,16.3,7.77,13.9l1.247-2.407.124-2.708L11.424,7.32l1.461-2.283,2.708-.124L18,3.666l2.407,1.247,2.708.124L24.576,7.32l2.283,1.461.124,2.708L28.23,13.9Z" fill="#e2001a"/>
  </g>
</svg>
