<svg xmlns="http://www.w3.org/2000/svg" width="29.25" height="31.5" viewBox="0 0 29.25 31.5">
  <path id="chart-rose" d="M33.75,19.125A16.894,16.894,0,0,0,16.875,2.25H15.75V9.067A10.139,10.139,0,0,0,6.817,18H4.5v1.125A12.386,12.386,0,0,0,15.75,31.444V33.75h1.125a14.634,14.634,0,0,0,14.569-13.5H33.75ZM18,4.543A14.65,14.65,0,0,1,31.457,18H18Zm-2.25,6.8V18H9.09a7.879,7.879,0,0,1,6.66-6.66ZM6.812,20.25H15.75v8.931A10.14,10.14,0,0,1,6.812,20.25ZM18,31.449V20.25H29.2A12.4,12.4,0,0,1,18,31.449Z" transform="translate(-4.5 -2.25)" fill="#4e5351"/>
</svg>
