<svg xmlns="http://www.w3.org/2000/svg" width="51.562" height="51.562" viewBox="0 0 51.562 51.562">
  <g id="camera-control" transform="translate(-1.719 -1.719)">
    <path id="Path_3465" data-name="Path 3465" d="M36.094,27.5A8.594,8.594,0,1,0,27.5,36.094,8.594,8.594,0,0,0,36.094,27.5Zm-13.75,0A5.156,5.156,0,1,1,27.5,32.656,5.156,5.156,0,0,1,22.344,27.5Z" fill="#e2001a"/>
    <path id="Path_3466" data-name="Path 3466" d="M17.188,42.753l9.163,10.528h2.3l9.165-10.528V39.531H17.188Zm15.879.216-5.567,6.4-5.567-6.4Z" fill="#e2001a"/>
    <path id="Path_3467" data-name="Path 3467" d="M26.351,1.719,17.188,12.247v3.222H37.813V12.248L28.649,1.719ZM21.933,12.032l5.567-6.4,5.567,6.4Z" fill="#e2001a"/>
    <path id="Path_3468" data-name="Path 3468" d="M1.719,26.351v2.3l10.528,9.165h3.222V17.188H12.248Zm10.313,6.716L5.635,27.5l6.4-5.567Z" fill="#e2001a"/>
    <path id="Path_3469" data-name="Path 3469" d="M42.753,17.188H39.531V37.813h3.221l10.529-9.164v-2.3Zm.216,15.879V21.933l6.4,5.567Z" fill="#e2001a"/>
  </g>
</svg>
