<svg xmlns="http://www.w3.org/2000/svg" width="110" height="110" viewBox="0 0 110 110">
  <g id="Group_6737" data-name="Group 6737" transform="translate(-298 -1572.991)">
    <circle id="Ellipse_19" data-name="Ellipse 19" cx="55" cy="55" r="55" transform="translate(298 1572.991)" opacity="0.121"/>
    <g id="generate-pdf" transform="translate(332.988 1607.644)">
      <path id="Path_6" data-name="Path 6" d="M30.018,27v5.171H9.335V27H6.75v5.171a2.585,2.585,0,0,0,2.585,2.585H30.018A2.585,2.585,0,0,0,32.6,32.171V27Z" transform="translate(0.335 3.688)" fill="#fff"/>
      <path id="Path_7" data-name="Path 7" d="M25.3,24.8,23.473,22.97l-3.343,3.344V15.75H17.546V26.314L14.2,22.972,12.375,24.8l6.463,6.463Z" transform="translate(1.174 2.012)" fill="#fff"/>
      <path id="Path_8" data-name="Path 8" d="M32.506,4.835V2.25H24.75V15.177h2.585V10.006h3.878V7.421H27.335V4.835Z" transform="translate(3.018)" fill="#fff"/>
      <path id="Path_9" data-name="Path 9" d="M19.8,15.177H14.625V2.25H19.8a3.881,3.881,0,0,1,3.878,3.878V11.3A3.881,3.881,0,0,1,19.8,15.177ZM17.21,12.591H19.8A1.294,1.294,0,0,0,21.088,11.3V6.128A1.294,1.294,0,0,0,19.8,4.835H17.21Z" transform="translate(1.509)" fill="#fff"/>
      <path id="Path_10" data-name="Path 10" d="M10.963,2.25H4.5V15.177H7.085V11.3h3.878a2.589,2.589,0,0,0,2.585-2.585V4.835A2.588,2.588,0,0,0,10.963,2.25ZM7.085,8.713V4.835h3.878V8.713Z" fill="#fff"/>
    </g>
  </g>
</svg>
