<svg xmlns="http://www.w3.org/2000/svg" width="44.688" height="43.673" viewBox="0 0 44.688 43.673">
  <g id="improve-relevance" transform="translate(-6.875 -6.875)">
    <path id="Path_3478" data-name="Path 3478" d="M37.813,45.7,33.361,41.25l-2.423,2.423,6.875,6.875L51.563,36.8l-2.424-2.423Z" fill="#e2001a"/>
    <path id="Path_3479" data-name="Path 3479" d="M30.938,27.5A3.438,3.438,0,1,1,27.5,24.062,3.438,3.438,0,0,1,30.938,27.5Z" fill="#e2001a"/>
    <path id="Path_3480" data-name="Path 3480" d="M27.5,37.813A10.313,10.313,0,1,1,37.813,27.5,10.313,10.313,0,0,1,27.5,37.813Zm0-17.188A6.875,6.875,0,1,0,34.375,27.5,6.875,6.875,0,0,0,27.5,20.625Z" fill="#e2001a"/>
    <path id="Path_3481" data-name="Path 3481" d="M48.125,27.5A20.625,20.625,0,1,0,27.5,48.125V44.687A17.188,17.188,0,1,1,44.688,27.5Z" fill="#e2001a"/>
  </g>
</svg>
