<svg xmlns="http://www.w3.org/2000/svg" width="41.346" height="41.986" viewBox="0 0 41.346 41.986">
  <g id="operations-record" transform="translate(-4.172 -3.438)">
    <path id="Path_3473" data-name="Path 3473" d="M34.375,34.375h15v3h-15Z" transform="translate(-3.853 -3.946)" fill="#e2001a"/>
    <path id="Path_3474" data-name="Path 3474" d="M34.375,41.25h15v3h-15Z" transform="translate(-3.853 -4.823)" fill="#e2001a"/>
    <path id="Path_3475" data-name="Path 3475" d="M34.375,48.125h15v3h-15Z" transform="translate(-3.853 -5.7)" fill="#e2001a"/>
    <path id="Path_3476" data-name="Path 3476" d="M26.185,32.183a5.866,5.866,0,0,1-6-6,5.866,5.866,0,0,1,6-6,5.866,5.866,0,0,1,6,6h3a9,9,0,1,0-9,9Z" transform="translate(-1.66 -1.754)" fill="#e2001a"/>
    <path id="Path_3477" data-name="Path 3477" d="M44.475,17l-3.539-6.13a3,3,0,0,0-3.56-1.342l-3.649,1.235A16.557,16.557,0,0,0,31.76,9.626L31,5.848a3,3,0,0,0-2.942-2.41H20.986a3,3,0,0,0-2.94,2.411L17.29,9.625a16.445,16.445,0,0,0-1.99,1.131L11.672,9.528a3,3,0,0,0-3.557,1.342L4.576,17a3,3,0,0,0,.616,3.752l2.9,2.545c-.026.378-.058.753-.058,1.135s.015.769.042,1.149L5.193,28.111a3,3,0,0,0-.619,3.752l3.539,6.13a3,3,0,0,0,3.56,1.342L15.321,38.1a16.454,16.454,0,0,0,1.967,1.139l.755,3.776a3,3,0,0,0,2.943,2.411h3.539v-3H20.986L19.921,37.1a13.638,13.638,0,0,1-4.041-2.357l-5.169,1.748-3.539-6.13,4.087-3.591a13.385,13.385,0,0,1-.01-4.69L7.172,18.5l3.539-6.129,5.139,1.74a13.54,13.54,0,0,1,4.071-2.348l1.065-5.324h7.077l1.064,5.324a13.642,13.642,0,0,1,4.041,2.357l5.169-1.748,3.539,6.13-4.2,3.676,1.977,2.255,4.2-3.68A3,3,0,0,0,44.476,17Z" transform="translate(0 0)" fill="#e2001a"/>
  </g>
</svg>
