<svg version="1.2" xmlns="http://www.w3.org/2000/svg" viewBox="0 0 32 36" width="32" height="36">
	<title>Download-PDF (1)-svg</title>
	<style>
		.s0 { fill: #ffffff } 
	</style>
	<g id="Group_6737">
		<g id="generate-pdf">
			<path id="Path_6" class="s0" d="m28.9 28.3v5.2q0 0.5-0.2 1-0.2 0.5-0.5 0.8-0.4 0.4-0.9 0.6-0.4 0.2-1 0.2h-20.6q-0.6 0-1-0.2-0.5-0.2-0.9-0.6-0.3-0.3-0.5-0.8-0.2-0.5-0.2-1v-5.2h2.6v5.2h20.6v-5.2z"/>
			<path id="Path_7" class="s0" d="m16 30.9l-6.5-6.4 1.9-1.9 3.3 3.4v-10.6h2.6v10.6l3.3-3.4 1.9 1.9z"/>
			<path id="Path_8" class="s0" d="m26.3 2.5v2.6h3.9v2.6h-3.9v5.1h-2.5v-12.9h7.7v2.6z"/>
			<path id="Path_9" fill-rule="evenodd" class="s0" d="m17.3 12.8h-5.2v-12.9h5.2q0.8 0 1.5 0.3 0.7 0.3 1.2 0.8 0.6 0.6 0.9 1.3 0.3 0.7 0.3 1.5v5.2q0 0.7-0.3 1.4-0.3 0.7-0.9 1.3-0.5 0.5-1.2 0.8-0.7 0.3-1.5 0.3zm-2.6-2.6h2.6q0.3 0 0.5-0.1 0.2-0.1 0.4-0.2 0.2-0.2 0.3-0.5 0.1-0.2 0.1-0.4v-5.2q0-0.3-0.1-0.5-0.1-0.2-0.3-0.4-0.2-0.2-0.4-0.3-0.2-0.1-0.5-0.1h-2.6z"/>
			<path id="Path_10" fill-rule="evenodd" class="s0" d="m7.9 0.1q0.5 0.2 0.9 0.6 0.3 0.3 0.5 0.8 0.2 0.5 0.2 1v3.9q0 0.5-0.2 1-0.2 0.4-0.5 0.8-0.4 0.4-0.9 0.6-0.4 0.2-0.9 0.2h-3.9v3.8h-2.6v-12.9h6.5q0.5 0 0.9 0.2zm-0.9 6.3v-3.9h-3.9v3.9z"/>
		</g>
	</g>
</svg>