<svg xmlns="http://www.w3.org/2000/svg" width="43.751" height="43.771" viewBox="0 0 43.751 43.771">
  <g id="classifier-language" transform="translate(-3.125 -3.104)">
    <path id="Path_3416" data-name="Path 3416" d="M46.875,15.625V3.125h-12.5v12.5h4.688v6.25H35.938V25H46.876V21.875H42.188v-6.25ZM37.5,6.25h6.25V12.5H37.5Z" fill="#939393"/>
    <path id="Path_3417" data-name="Path 3417" d="M31.25,36.578l-2.2-2.2L25,38.422l-4.047-4.047-2.2,2.2L22.8,40.625,18.75,44.672l2.2,2.2L25,42.828l4.047,4.047,2.2-2.2L27.2,40.625Z" fill="#939393"/>
    <path id="Path_3418" data-name="Path 3418" d="M31.25,21.875H18.75V25h4.688v7.813h3.125V25h4.688V21.875Z" fill="#939393"/>
    <path id="Path_3419" data-name="Path 3419" d="M10.938,15.406a6.25,6.25,0,1,0-3.125,0v6.469H3.125V25H14.063V21.875H10.938ZM6.25,9.375A3.125,3.125,0,1,1,9.375,12.5,3.125,3.125,0,0,1,6.25,9.375Z" fill="#939393"/>
  </g>
</svg>
