<svg xmlns="http://www.w3.org/2000/svg" width="41.252" height="41.251" viewBox="0 0 41.252 41.251">
  <g id="share-knowledge" transform="translate(-3.438 -3.438)">
    <path id="Path_3486" data-name="Path 3486" d="M44.2,42.969h-8.84a4.42,4.42,0,0,0-4.42,4.42v2.947h2.947V47.389a1.473,1.473,0,0,1,1.473-1.473H44.2a1.473,1.473,0,0,1,1.473,1.473v2.947h2.947V47.389a4.42,4.42,0,0,0-4.42-4.42Z" transform="translate(-3.928 -5.646)" fill="#e2001a"/>
    <path id="Path_3487" data-name="Path 3487" d="M34.375,33.393A5.893,5.893,0,1,0,40.268,27.5,5.893,5.893,0,0,0,34.375,33.393Zm8.84,0a2.947,2.947,0,1,1-2.947-2.947A2.947,2.947,0,0,1,43.215,33.393Z" transform="translate(-4.419 -3.437)" fill="#e2001a"/>
    <path id="Path_3488" data-name="Path 3488" d="M9.822,35.848V34.375H6.875v1.473A10.313,10.313,0,0,0,17.188,46.161h4.42V43.214h-4.42a7.366,7.366,0,0,1-7.366-7.366Z" transform="translate(-0.491 -4.419)" fill="#e2001a"/>
    <path id="Path_3489" data-name="Path 3489" d="M32.656,17.188H42.969v2.947H32.656Z" transform="translate(-4.173 -1.964)" fill="#e2001a"/>
    <path id="Path_3490" data-name="Path 3490" d="M32.656,10.313H47.389V13.26H32.656Z" transform="translate(-4.173 -0.982)" fill="#e2001a"/>
    <path id="Path_3491" data-name="Path 3491" d="M32.656,3.438H47.389V6.385H32.656Z" transform="translate(-4.173 0)" fill="#e2001a"/>
    <path id="Path_3492" data-name="Path 3492" d="M16.7,18.906H7.858a4.42,4.42,0,0,0-4.42,4.42v2.947H6.385V23.326a1.473,1.473,0,0,1,1.473-1.473H16.7a1.473,1.473,0,0,1,1.473,1.473v2.947h2.947V23.326a4.42,4.42,0,0,0-4.42-4.42Z" transform="translate(0 -2.209)" fill="#e2001a"/>
    <path id="Path_3493" data-name="Path 3493" d="M12.768,15.224A5.893,5.893,0,1,0,6.875,9.331a5.893,5.893,0,0,0,5.893,5.893Zm0-8.84A2.947,2.947,0,1,1,9.821,9.331a2.947,2.947,0,0,1,2.947-2.947Z" transform="translate(-0.491)" fill="#e2001a"/>
  </g>
</svg>
