<svg xmlns="http://www.w3.org/2000/svg" width="31.902" height="33.75" viewBox="0 0 31.902 33.75">
  <g id="cog" transform="translate(-1.287 -1.125)">
    <path id="Path_3389" data-name="Path 3389" d="M17.237,11.813A6.188,6.188,0,1,0,23.425,18a6.188,6.188,0,0,0-6.188-6.188Zm0,10.125A3.938,3.938,0,1,1,21.175,18,3.938,3.938,0,0,1,17.237,21.938Z" fill="#4e5351"/>
    <path id="Path_3390" data-name="Path 3390" d="M32.674,22.663,30.44,20.824a13.576,13.576,0,0,0,0-5.648l2.234-1.839A1.4,1.4,0,0,0,33,11.548L30.705,7.577a1.4,1.4,0,0,0-1.711-.614L26.283,7.979a13.5,13.5,0,0,0-4.89-2.826L20.917,2.3A1.4,1.4,0,0,0,19.53,1.125H14.944A1.4,1.4,0,0,0,13.557,2.3l-.475,2.853a13.5,13.5,0,0,0-4.89,2.826L5.481,6.963a1.4,1.4,0,0,0-1.711.614L1.477,11.548A1.4,1.4,0,0,0,1.8,13.337l2.234,1.839a13.576,13.576,0,0,0,0,5.648L1.8,22.663a1.4,1.4,0,0,0-.324,1.789L3.77,28.423a1.4,1.4,0,0,0,1.711.614l2.711-1.016a13.5,13.5,0,0,0,4.89,2.826l.475,2.853a1.4,1.4,0,0,0,1.387,1.175H19.53A1.4,1.4,0,0,0,20.917,33.7l.476-2.853a13.5,13.5,0,0,0,4.89-2.826l2.712,1.016a1.4,1.4,0,0,0,1.711-.614L33,24.451a1.4,1.4,0,0,0-.323-1.788Zm-3.56,4.016-3.383-1.267-.512.516a11.247,11.247,0,0,1-5.106,2.951l-.7.185-.594,3.561H15.66l-.594-3.561-.7-.185a11.247,11.247,0,0,1-5.106-2.951l-.512-.516L5.362,26.679,3.783,23.946l2.786-2.294-.19-.7a11.313,11.313,0,0,1,0-5.9l.19-.7L3.783,12.054,5.361,9.32l3.383,1.267.512-.516A11.247,11.247,0,0,1,14.362,7.12l.7-.185.594-3.56h3.157l.594,3.561.7.185a11.247,11.247,0,0,1,5.106,2.951l.512.516,3.383-1.267,1.578,2.734-2.786,2.294.19.7a11.313,11.313,0,0,1,0,5.9l-.19.7,2.786,2.294Z" fill="#4e5351"/>
  </g>
</svg>
