<svg xmlns="http://www.w3.org/2000/svg" width="44.875" height="43.75" viewBox="0 0 44.875 43.75">
  <g id="star-review" transform="translate(-2 -3.125)">
    <path id="Path_3420" data-name="Path 3420" d="M28.125,40.625h12.5V43.75h-12.5Z" fill="#939393"/>
    <path id="Path_3421" data-name="Path 3421" d="M28.125,34.375h18.75V37.5H28.125Z" fill="#939393"/>
    <path id="Path_3422" data-name="Path 3422" d="M28.125,28.125h18.75V31.25H28.125Z" fill="#939393"/>
    <path id="Path_3423" data-name="Path 3423" d="M32.108,17.527,25,3.125l-7.108,14.4L2,19.836,13.5,31.047,10.784,46.875l11.091-5.83V37.514l-6.939,3.648,1.644-9.588.278-1.62-1.177-1.145L8.715,22.017l9.627-1.4,1.625-.236.728-1.473L25,10.186l4.305,8.723.728,1.473,1.625.236,11.647,1.695.445-3.094Z" fill="#939393"/>
  </g>
</svg>
