<svg xmlns="http://www.w3.org/2000/svg" width="26.884" height="32.507" viewBox="0 0 26.884 32.507">
  <g id="globe" transform="translate(-4.616 -1.243)">
    <path id="Path_3387" data-name="Path 3387" d="M15.75,4.5a7.875,7.875,0,1,1-7.875,7.875A7.875,7.875,0,0,1,15.75,4.5m0-2.25A10.125,10.125,0,1,0,25.875,12.375,10.125,10.125,0,0,0,15.75,2.25Z" fill="#4e5351"/>
    <path id="Path_3388" data-name="Path 3388" d="M31.5,12.375A15.7,15.7,0,0,0,26.882,1.243L25.29,2.835A13.493,13.493,0,0,1,6.25,21.96l-.043-.043L4.616,23.508A15.7,15.7,0,0,0,15.75,28.125V31.5h-4.5v2.25H22.5V31.5H18V27.945a15.761,15.761,0,0,0,13.5-15.57Z" fill="#4e5351"/>
  </g>
</svg>
