<svg xmlns="http://www.w3.org/2000/svg" width="35.697" height="46.561" viewBox="0 0 35.697 46.561">
  <path id="user" d="M40.76,33.5,33.7,28.91l2.663-4.883a7.782,7.782,0,0,0,.948-3.716V12.583a10.865,10.865,0,1,0-21.729,0v7.729a7.783,7.783,0,0,0,.947,3.716l2.663,4.883L12.124,33.5a7.733,7.733,0,0,0-3.53,6.507V48.28h35.7V40.008A7.733,7.733,0,0,0,40.76,33.5Zm.427,11.674H11.7V40.009a4.641,4.641,0,0,1,2.118-3.9l9.473-6.158L19.25,22.542a4.67,4.67,0,0,1-.568-2.23V12.583a7.76,7.76,0,1,1,15.521,0v7.729a4.67,4.67,0,0,1-.569,2.23L29.6,29.947,39.069,36.1a4.641,4.641,0,0,1,2.118,3.9Z" transform="translate(-8.594 -1.719)" fill="#e2001a"/>
</svg>
