<svg xmlns="http://www.w3.org/2000/svg" xmlns:xlink="http://www.w3.org/1999/xlink" viewBox="0 0 562 225"><g id="Page-1" stroke="none" stroke-width="1" fill="none" fill-rule="evenodd"><g id="BTG_A-Voith-Company_Logo_2019_colored_RGB-(1)" fill-rule="nonzero"><polygon id="Path" fill="#E2001A" points="170.42 58.48 64.11 164.8 53.6 154.3 172 35.9 173.89 8.86 41.03 141.72 32.31 133.01 163.46 1.86 138.31 1.86 19.74 120.43 12.95 113.64 124.73 1.86 106.47 1.86 106.62 2.01 99.83 8.79 92.9 1.86 67.75 1.86 87.26 21.37 78.54 30.08 50.32 1.86 25.17 1.86 65.97 42.66 55.46 53.16 10.92 8.62 9.28 32.13 42.89 65.74 30.32 78.3 7.64 55.62 6 79.12 17.75 90.88 4.23 104.4 0 164.85 89.21 164.85 168.53 85.52"></polygon><polygon id="Path" fill="#DF081C" points="166.64 112.54 114.34 164.85 139.49 164.85 164.75 139.58"></polygon><path d="M285.54,80.39 C285.566047,80.7954282 285.75331,81.1735569 286.06,81.44 C297.873333,87.8 304.15,97.96 304.89,111.92 C304.956667,113.32 304.926667,115.723333 304.8,119.13 C303.74,134.183333 297.943333,145.546667 287.41,153.22 C276.876667,160.893333 263.623333,164.733333 247.65,164.74 L190.18,164.74 C187.7,164.74 186.54,163.42 186.72,160.79 L197.61,5.79 C197.776667,3.12333333 199.11,1.79 201.61,1.79 L257.18,1.79 C289.44,1.79 306.216667,13.9666667 307.51,38.32 C307.714238,41.032828 307.714238,43.757172 307.51,46.47 C306.623333,62.1566667 299.513333,73.1933333 286.18,79.58 C285.795362,79.6540042 285.523029,79.9986753 285.54,80.39 Z M267.33,130 C271.53,125.74 273.43,119.886667 273.03,112.44 C272.75,107.013333 270.783333,102.823333 267.13,99.87 C263.476667,96.9166667 258.476667,95.4433333 252.13,95.4499775 L224.44,95.4499775 C223.66,95.4499775 223.14,95.92 222.88,96.85 L220.24,135 C220.29,135.93 220.7,136.39 221.48,136.39 L249.64,136.39 C257.233333,136.363333 263.13,134.233333 267.33,130 Z M227.57,31.46 L225.04,67.3 C224.93,68.23 225.35,68.69 226.28,68.69 L252.57,68.69 C259.55,68.69 265.123333,67.0233333 269.29,63.69 C273.456667,60.3566667 275.77,55.6633333 276.23,49.61 L276.31,46.82 C276.03,41.5466667 274.07,37.4366667 270.43,34.49 C266.79,31.5433333 261.706667,30.0466667 255.18,30 L228.89,30 C228.507092,29.936126 228.117615,30.068024 227.85231,30.3514177 C227.587005,30.6348114 227.481045,31.0321301 227.57,31.41 L227.57,31.46 Z" id="Shape" fill="#222929"></path><path d="M438.68,5.82 L437.18,26.29 C437.013333,28.9566667 435.61,30.29 432.97,30.29 L394.18,30.29 C393.41,30.29 392.89,30.75 392.63,31.69 L383.63,160.83 C383.463333,163.456667 382.06,164.773333 379.42,164.78 L355.42,164.78 C352.753333,164.78 351.52,163.463333 351.72,160.83 L360.72,31.69 C360.98,30.75 360.57,30.29 359.48,30.29 L321.54,30.29 C320.513808,30.3798893 319.503318,29.992658 318.8,29.24 C318.188335,28.4014489 317.92657,27.3579736 318.07,26.33 L319.55,5.86 C319.72,3.22 321.04,1.86 323.55,1.86 L434.98,1.86 C437.62,1.86 438.853333,3.18 438.68,5.82 Z" id="Path" fill="#222929"></path><path d="M456.6,153.34 C446.753333,144.5 441.436667,132.72 440.65,118 C440.449637,115.133497 440.449637,112.256503 440.65,109.39 L444.41,57.27 C444.996368,46.6503973 448.209055,36.3423095 453.76,27.27 C459.107947,18.6714647 466.719202,11.7106265 475.76,7.15 C484.966667,2.42333333 495.39,0.0566666667 507.03,0.05 C517.57,0.05 526.903333,2.02666667 535.03,5.98 C542.774893,9.60191919 549.392967,15.2557935 554.18,22.34 C558.846142,29.4051009 561.494712,37.6101354 561.84,46.07 C561.911575,48.2441058 561.868181,50.4204752 561.71,52.59 L561.71,53.05 C561.383333,55.7166667 559.98,57.05 557.5,57.05 L533.3,57.05 C532.362889,57.0805074 531.432535,56.8813909 530.59,56.47 C529.87,56.08 529.59,55.65 529.71,55.19 L529.86,53.56 C529.977602,52.4773239 529.997683,51.3862703 529.92,50.3 C529.781624,44.2444861 527.211876,38.4994941 522.79,34.36 C518.39,30.2533333 512.463333,28.1966667 505.01,28.19 C496.95,28.19 490.303333,30.79 485.07,35.99 C479.836667,41.19 476.896667,47.9766667 476.25,56.35 L472.59,110.35 C472.480857,111.744534 472.480857,113.145466 472.59,114.54 C472.97,121.68 475.563333,127.456667 480.37,131.87 C485.176667,136.283333 491.226667,138.496667 498.52,138.51 C506.426667,138.51 512.83,136.376667 517.73,132.11 C522.63,127.843333 525.34,121.91 525.86,114.31 L526.72,104.07 C526.72,103.14 526.25,102.67 525.48,102.67 L501.48,102.67 C498.84,102.67 497.69,101.36 498.02,98.72 L499.34,79.64 C499.5,77 500.83,75.64 503.34,75.64 L556.18,75.64 C558.846667,75.64 560.08,76.9733333 559.88,79.64 L557.72,109.19 C556.486667,127.03 550.21,141.07 538.89,151.31 C527.57,161.55 513.056667,166.646667 495.35,166.600318 C479.37,166.600318 466.453333,162.18 456.6,153.34 Z" id="Path" fill="#222929"></path><path d="M200.34,184.62 L203.77,184.62 L215.96,215.33 L212.79,215.33 L209.49,207.11 L194.06,207.11 L190.79,215.33 L187.79,215.33 L200.34,184.62 Z M195.18,204.46 L208.48,204.46 L201.83,187.53 L195.18,204.46 Z" id="Shape" fill="#666666"></path><polygon id="Path" fill="#666666" points="243.24 215.33 239.98 215.33 228.54 184.62 231.75 184.62 241.65 212.3 251.86 184.62 254.86 184.62"></polygon><path d="M258.99,195.93 C260.69,193.61 263.33,192.423333 266.91,192.37 C270.536667,192.423333 273.203333,193.61 274.91,195.93 C278.190976,200.875294 278.190976,207.304706 274.91,212.25 C273.196667,214.603333 270.53,215.806667 266.91,215.86 C263.33,215.8 260.69,214.596667 258.99,212.25 C255.589711,207.34134 255.589711,200.83866 258.99,195.93 L258.99,195.93 Z M261.41,210.71 C262.634051,212.531304 264.71762,213.584454 266.91,213.49 C269.123115,213.566224 271.225316,212.520765 272.5,210.71 C273.792714,208.758502 274.436623,206.448828 274.34,204.11 C274.427454,201.74405 273.785078,199.408453 272.5,197.42 C271.191351,195.661049 269.100863,194.658811 266.91,194.74 C264.740346,194.640568 262.668734,195.650008 261.41,197.42 C260.065492,199.385603 259.385639,201.730046 259.47,204.11 C259.375544,206.463199 260.057192,208.782209 261.41,210.71 L261.41,210.71 Z" id="Shape" fill="#666666"></path><path d="M284.9,186.91 L282.18,186.91 L282.18,183.21 L284.95,183.21 L284.9,186.91 Z M282.13,192.91 L284.9,192.91 L284.9,215.35 L282.18,215.35 L282.13,192.91 Z" id="Shape" fill="#666666"></path><path d="M301.1,195.27 L295.99,195.27 L295.99,209.79 C295.961396,210.70364 296.20505,211.605159 296.69,212.38 C297.187791,213.146758 298.069716,213.574241 298.98,213.49 C299.862773,213.512959 300.738907,213.331572 301.54,212.96 L301.71,215.25 C301.39,215.36 300.93,215.49 300.35,215.64 C299.694253,215.791427 299.022983,215.865267 298.35,215.86 C297.359841,215.908837 296.374066,215.698584 295.49,215.25 C294.83906,214.855493 294.306939,214.292274 293.95,213.62 C293.646988,212.858062 293.455027,212.056539 293.38,211.24 C293.288322,210.289479 293.244933,209.334918 293.25,208.38 L293.25,195.27 L288.85,195.27 L288.85,192.89 L293.18,192.89 L293.18,187.48 L295.95,186.48 L295.95,192.86 L301.06,192.86 L301.1,195.27 Z" id="Path" fill="#666666"></path><path d="M305.58,182.33 L308.35,182.33 L308.35,196.68 L308.44,196.68 C309.063275,195.417646 310.004049,194.339029 311.17,193.55 C312.45388,192.762562 313.933967,192.353545 315.44,192.37 C318.433333,192.37 320.473333,193.246667 321.56,195 C322.692951,197.120139 323.225436,199.50941 323.1,201.91 L323.1,215.33 L320.32,215.33 L320.32,202 C320.321835,201.057385 320.265059,200.115568 320.15,199.18 C320.050905,198.391011 319.795965,197.62959 319.4,196.94 C318.69,195.53 317.23,194.81 315,194.78 C312.900828,194.669499 310.914934,195.737641 309.85,197.55 C308.831799,199.31457 308.313254,201.323068 308.35,203.36 L308.35,215.36 L305.58,215.36 L305.58,182.33 Z" id="Path" fill="#666666"></path><path d="M356.4,195.88 C354.900564,195.169381 353.268796,194.781027 351.61,194.74 C349.253544,194.624199 346.97103,195.579841 345.4,197.34 C343.846755,199.244722 343.049348,201.654742 343.16,204.11 C343.079564,206.490229 343.860738,208.819547 345.36,210.67 C346.773284,212.508074 348.982367,213.556831 351.3,213.49 C353.036245,213.495021 354.756193,213.155111 356.36,212.49 L356.62,215.09 C354.75353,215.654776 352.809608,215.921391 350.86,215.88 C347.246667,215.82 344.563333,214.633333 342.81,212.32 C340.992621,209.983532 340.041923,207.089029 340.12,204.13 C339.99332,201.005558 341.099473,197.956457 343.2,195.64 C345.280175,193.463912 348.191572,192.281157 351.2,192.39 C352.350708,192.368926 353.500422,192.469484 354.63,192.69 C355.1,192.78 355.51,192.87 355.87,192.96 C356.124091,193.044631 356.371456,193.148256 356.61,193.27 L356.4,195.88 Z" id="Path" fill="#666666"></path><path d="M361.99,195.93 C363.69,193.61 366.33,192.423333 369.91,192.37 C373.55,192.423333 376.216667,193.61 377.91,195.93 C381.190976,200.875294 381.190976,207.304706 377.91,212.25 C376.21,214.603333 373.543333,215.806667 369.91,215.86 C366.33,215.8 363.69,214.596667 361.99,212.25 C358.589711,207.34134 358.589711,200.83866 361.99,195.93 L361.99,195.93 Z M364.41,210.71 C365.634051,212.531304 367.71762,213.584454 369.91,213.49 C372.123514,213.568069 374.226546,212.522196 375.5,210.71 C376.796239,208.75968 377.443673,206.449916 377.35,204.11 C377.434487,201.74299 376.788596,199.407308 375.5,197.42 C374.193628,195.658287 372.10159,194.655307 369.91,194.74 C367.740346,194.640568 365.668734,195.650008 364.41,197.42 C363.065492,199.385603 362.385639,201.730046 362.47,204.11 C362.375544,206.463199 363.057192,208.782209 364.41,210.71 L364.41,210.71 Z" id="Shape" fill="#666666"></path><path d="M412.55,215.33 L412.55,200.42 C412.554496,199.652963 412.494283,198.886914 412.37,198.13 C412.208234,197.493886 411.922805,196.895846 411.53,196.37 C411.171828,195.831912 410.669296,195.405626 410.08,195.14 C409.352249,194.850772 408.572706,194.714607 407.79,194.74 C406.197675,194.759478 404.691646,195.466911 403.66,196.68 C402.426667,198.013333 401.796667,200.093333 401.77,202.92 L401.77,215.33 L398.99,215.33 L398.99,200.42 C398.992645,199.653419 398.935808,198.887788 398.82,198.13 C398.658234,197.493886 398.372805,196.895846 397.98,196.37 C397.621828,195.831912 397.119296,195.405626 396.53,195.14 C395.802016,194.851598 395.022646,194.715463 394.24,194.74 C392.647675,194.759478 391.141646,195.466911 390.11,196.68 C388.87,198.013333 388.236667,200.093333 388.21,202.92 L388.21,215.33 L385.44,215.33 L385.44,198.17 C385.44,196.44 385.38,194.68 385.27,192.89 L387.95,192.89 L387.95,196.68 L388.04,196.68 C388.281449,196.206091 388.558931,195.751421 388.87,195.32 C389.200408,194.7831 389.619719,194.306302 390.11,193.91 C390.712724,193.424872 391.387523,193.036862 392.11,192.76 C393.057676,192.447375 394.052486,192.301875 395.05,192.33 C395.627459,192.331356 396.203448,192.388285 396.77,192.5 C397.393797,192.631515 397.989561,192.871852 398.53,193.21 C399.142927,193.553749 399.669564,194.03251 400.07,194.61 C400.549595,195.358157 400.863305,196.200398 400.99,197.08 L401.08,197.08 C401.643186,195.721372 402.574903,194.5472 403.77,193.69 C405.080573,192.771505 406.649996,192.295073 408.25,192.33 C410.233923,192.227067 412.163412,192.998132 413.53,194.44 C414.795689,195.949599 415.44243,197.882675 415.34,199.85 L415.34,215.29 L412.55,215.33 Z" id="Path" fill="#666666"></path><path d="M421.65,192.89 L424.43,192.89 L424.25,196.99 L424.34,196.99 C424.51,196.66 424.78,196.22 425.13,195.67 C425.500065,195.112548 425.944123,194.607937 426.45,194.17 C427.071281,193.63053 427.768801,193.185735 428.52,192.85 C429.48172,192.505887 430.498923,192.343134 431.52,192.37 C434.8,192.37 437.176667,193.47 438.65,195.67 C440.166093,198.215414 440.899887,201.15059 440.76,204.11 C440.880624,207.06655 440.080469,209.987637 438.47,212.47 C436.869789,214.695625 434.259011,215.969083 431.52,215.86 C428.12,215.86 425.78,214.41 424.52,211.5 L424.44,211.5 L424.44,224.57 L421.66,224.57 L421.65,192.89 Z M437.49,200.77 C437.311915,199.710605 436.938945,198.693413 436.39,197.77 C435.94973,196.858945 435.255097,196.094849 434.39,195.57 C433.394206,194.977179 432.248039,194.685428 431.09,194.73 C430.001771,194.690016 428.927252,194.983067 428.01,195.57 C427.15165,196.162365 426.442954,196.946382 425.94,197.86 C425.412823,198.793616 425.041289,199.806891 424.84,200.86 C424.585769,201.924788 424.454908,203.015294 424.45,204.11 C424.422588,206.271691 424.934706,208.406092 425.94,210.32 C426.438753,211.223041 427.149049,211.99167 428.01,212.56 C428.906166,213.200869 429.988911,213.527802 431.09,213.49 C432.260259,213.533315 433.414569,213.208009 434.39,212.56 C435.232993,212.030299 435.922541,211.289035 436.39,210.41 C436.927297,209.452513 437.299184,208.41123 437.49,207.33 C437.636883,206.262961 437.710389,205.187101 437.710019,204.11 C437.711365,202.993002 437.637867,201.877168 437.49,200.77 L437.49,200.77 Z" id="Shape" fill="#666666"></path><path d="M459.1,211.72 L459.01,211.72 C458.359602,213.017293 457.307293,214.069602 456.01,214.72 C453.540721,216.066728 450.587458,216.195934 448.01,215.07 C447.119281,214.713129 446.332032,214.139022 445.72,213.4 C444.886771,212.264258 444.425654,210.898376 444.4,209.49 C444.308922,207.892039 444.791187,206.314039 445.76,205.04 C446.644059,203.955267 447.820517,203.146669 449.15,202.71 C450.597954,202.18675 452.106844,201.850694 453.64,201.71 C455.22,201.62 456.75,201.58 458.22,201.58 L458.74,201.58 L458.74,200.5 C458.833333,196.66 457.133333,194.74 453.64,194.74 C451.308634,194.714956 449.018686,195.356835 447.04,196.59 L447.04,193.91 C449.107707,192.939639 451.356365,192.414952 453.64,192.37 C458.973333,192.31 461.6,195.093333 461.52,200.72 L461.52,210.63 C461.481985,212.199899 461.555504,213.770516 461.74,215.33 L459.01,215.33 L459.1,211.72 Z M458.83,204.03 L458.04,204.03 C456.84,204.03 455.64,204.03 454.43,204.11 C453.259046,204.210634 452.106093,204.462738 451,204.86 C450.044333,205.163909 449.1924,205.728401 448.54,206.49 C447.837208,207.306723 447.478717,208.364269 447.54,209.44 C447.426478,210.642456 447.959395,211.814875 448.94,212.52 C449.890459,213.196035 451.033948,213.546799 452.2,213.52 C453.548112,213.578764 454.88269,213.23031 456.03,212.52 C456.881123,211.978375 457.571702,211.218738 458.03,210.32 C458.450309,209.479771 458.704942,208.566488 458.78,207.63 C458.78,206.72 458.86,205.98 458.86,205.39 L458.83,204.03 Z" id="Shape" fill="#666666"></path><path d="M468.03,198.17 C468.03,196.436667 467.97,194.676667 467.85,192.89 L470.54,192.89 L470.54,196.89 L470.63,196.89 C470.902634,196.341024 471.209921,195.809951 471.55,195.3 C471.918622,194.756208 472.363122,194.267931 472.87,193.85 C473.483505,193.354632 474.186142,192.981249 474.94,192.75 C475.913819,192.465663 476.92585,192.334099 477.94,192.36 C480.69,192.36 482.67,193.21 483.88,194.82 C485.088927,196.639991 485.687782,198.79727 485.59,200.98 L485.59,215.32 L482.82,215.32 L482.82,201.69 C482.90738,199.912229 482.495147,198.145515 481.63,196.59 C480.646383,195.325229 479.098582,194.631904 477.5,194.74 C475.026667,194.8 473.293333,195.68 472.3,197.38 C471.764616,198.174798 471.384587,199.063793 471.18,200 C470.949198,200.963019 470.831734,201.949711 470.83,202.94 L470.83,215.35 L468.06,215.35 L468.03,198.17 Z" id="Path" fill="#666666"></path><path d="M498.57,211.59 L498.57,211.59 L505.04,192.89 L507.94,192.89 L498.94,218.68 C498.489218,220.191891 497.789636,221.618092 496.87,222.9 C496.451769,223.469696 495.907633,223.93512 495.28,224.26 C494.636234,224.626736 493.910768,224.826153 493.17,224.840012 C492.159734,224.841392 491.152813,224.723918 490.17,224.49 L490.43,222.11 C490.717984,222.203277 491.012001,222.276781 491.31,222.33 C491.69921,222.425552 492.099339,222.469264 492.5,222.46 C493.554232,222.479571 494.541342,221.944254 495.1,221.05 C495.77529,219.98324 496.265521,218.810067 496.55,217.58 L497.12,215.58 L489.12,192.87 L492.12,192.87 L498.57,211.59 Z" id="Path" fill="#666666"></path></g></g></svg>