<svg xmlns="http://www.w3.org/2000/svg" width="494.013" height="714.745" viewBox="0 0 494.013 714.745">
  <g id="Group_6734" data-name="Group 6734" transform="translate(13110.027 -7595.8)">
    <path id="Path_3687" data-name="Path 3687" d="M0,0H485l13.684,14.873L0,15Z" transform="translate(-13110.027 7948.423) rotate(-45)" fill="#efccd0"/>
    <path id="Path_3686" data-name="Path 3686" d="M0,0H511l13.19,13.19L0,13Z" transform="translate(-13090.936 7967.746) rotate(-45)" fill="#efccd0"/>
    <path id="Path_3685" data-name="Path 3685" d="M0,0,535.317,1.225,545.9,12.23,0,12Z" transform="translate(-13073.936 7983.746) rotate(-45)" fill="#efccd0"/>
    <path id="Path_3680" data-name="Path 3680" d="M0,0,556.759,0l9.863,9.863L0,11.384Z" transform="translate(-13058.643 8000.038) rotate(-45)" fill="#efccd0"/>
    <path id="Path_3681" data-name="Path 3681" d="M0,0,576.71.458,584.5,8.25,0,8.72Z" transform="translate(-13043.643 8014.038) rotate(-45)" fill="#efccd0"/>
    <path id="Path_3682" data-name="Path 3682" d="M0,0,398.909-.137,383.9,14.873,0,15Z" transform="translate(-13018.742 8017.867) rotate(45)" fill="#efccd0"/>
    <path id="Path_3683" data-name="Path 3683" d="M0-.008,421.636.515,408.379,13.771,0,14.165Z" transform="translate(-13002.332 7999.458) rotate(45)" fill="#efccd0"/>
    <path id="Path_3684" data-name="Path 3684" d="M0-.036,442.183-.369,432.6,9.917,0,10.961Z" transform="translate(-12987.338 7984.982) rotate(45)" fill="#efccd0"/>
    <path id="Path_3679" data-name="Path 3679" d="M0-.048l463.221-.34L453.64,9.193,0,9.66Z" transform="translate(-12971.541 7970.164) rotate(45)" fill="#efccd0"/>
    <path id="Path_3678" data-name="Path 3678" d="M0-.062l484.231-.09-8.045,8.045L0,8.117Z" transform="translate(-12958.525 7955.471) rotate(45)" fill="#efccd0"/>
  </g>
</svg>
